{"title":"Planes Trains and Automobiles-720p MP4 AAC x264 BRRip 1987-CC","uid":7902819,"size":3277928322,"categoryP":"video","categoryS":"hd___movies","magnet":"?xt=urn:btih:f79ba4750d864620b2a2522592086c2827986287&amp;dn=Planes+Trains+and+Automobiles-720p+MP4+AAC+x264+BRRip+1987-CC&amp;tr=udp%3A%2F%2Ftracker.openbittorrent.com%3A80&amp;tr=udp%3A%2F%2Fopen.demonii.com%3A1337&amp;tr=udp%3A%2F%2Ftracker.coppersurfer.tk%3A6969&amp;tr=udp%3A%2F%2Fexodus.desync.com%3A6969","seeders":2,"leechers":1,"uploader":"Caveman44","files":-1,"time":1355001994,"description":" &lt;a href=&quot;http://www.imdb.com/title/tt0093748&quot; rel=&quot;nofollow&quot; target=&quot;_NEW&quot;&gt;http://www.imdb.com/title/tt0093748&lt;/a&gt;\n\nSource: Planes.Trains.Automobiles.1987.BluRay.720p.DTS.x264-CHD Thanks!\n\nSubs: Arabic, Croatian, Danish, Dutch, English, Finnish, French, German, Greek, Servian, Slovenian and Swedish.\n\nSample and Screens included.\n\nGeneral\nComplete name                            : Planes Trains and Automobiles-720p MP4 AAC x264 BRRip 1987-CC.mp4\nFormat                                   : MPEG-4\nFormat profile                           : Base Media\nCodec ID                                 : isom\nFile size                                : 3.02 GiB\nDuration                                 : 1h 32mn\nOverall bit rate mode                    : Variable\nOverall bit rate                         : 4 676 Kbps\nEncoded date                             : UTC 2012-12-03 18:32:28\n\nVideo\nID                                       : 1\nFormat                                   : AVC\nFormat/Info                              : Advanced Video Codec\nFormat profile                           : &lt;a class=&quot;__cf_email__&quot; href=&quot;/cdn-cgi/l/email-protection&quot; data-cfemail=&quot;96defff1fed6daa2b8a7&quot;&gt;[email&amp;#160;protected]&lt;/a&gt;&lt;script cf-hash='f9e31' type=&quot;text/javascript&quot;&gt;\n/* &lt;![CDATA[ */!function(){try{var t=&quot;currentScript&quot;in document?document.currentScript:function(){for(var t=document.getElementsByTagName(&quot;script&quot;),e=t.length;e--;)if(t[e].getAttribute(&quot;cf-hash&quot;))return t[e]}();if(t&amp;&amp;t.previousSibling){var e,r,n,i,c=t.previousSibling,a=c.getAttribute(&quot;data-cfemail&quot;);if(a){for(e=&quot;&quot;,r=parseInt(a.substr(0,2),16),n=2;a.length-n;n+=2)i=parseInt(a.substr(n,2),16)^r,e+=String.fromCharCode(i);e=document.createTextNode(e),c.parentNode.replaceChild(e,c)}}}catch(u){}}();/* ]]&gt; */&lt;/script&gt;\nFormat settings, CABAC                   : Yes\nFormat settings, ReFrames                : 5 frames\nCodec ID                                 : avc1\nCodec ID/Info                            : Advanced Video Coding\nDuration                                 : 1h 32mn\nBit rate                                 : 4 314 Kbps\nMaximum bit rate                         : 18.2 Mbps\nWidth                                    : 1 280 pixels\nHeight                                   : 720 pixels\nDisplay aspect ratio                     : 16:9\nFrame rate mode                          : Variable\nFrame rate                               : 23.976 fps\nMinimum frame rate                       : 19.048 fps\nMaximum frame rate                       : 24.390 fps\nColor space                              : YUV\nChroma subsampling                       : 4:2:0\nBit depth                                : 8 bits\nScan type                                : Progressive\nBits/(Pixel*Frame)                       : 0.195\nStream size                              : 2.77 GiB (92%)\nWriting library                          : x264 core 112\n\nAudio\nID                                       : 2\nFormat                                   : AAC\nFormat/Info                              : Advanced Audio Codec\nFormat profile                           : LC\nCodec ID                                 : 40\nDuration                                 : 1h 32mn\nBit rate mode                            : Variable\nBit rate                                 : 384 Kbps\nMaximum bit rate                         : 704 Kbps\nChannel(s)                               : 6 channels\nChannel positions                        : Front: L C R, Side: L R, LFE\nSampling rate                            : 48.0 KHz\nCompression mode                         : Lossy\nDelay relative to video                  : 83ms\nStream size                              : 253 MiB (8%)\nLanguage                                 : English\n\nEnjoy...\n\nRequested by SectorVector\n\nComing soon: The Gold Rush, Donnie Darko, Buffalo 66, The Objective and more...","torrent":{"xt":"urn:btih:f79ba4750d864620b2a2522592086c2827986287","amp;dn":"Planes+Trains+and+Automobiles-720p+MP4+AAC+x264+BRRip+1987-CC","amp;tr":["udp%3A%2F%2Ftracker.openbittorrent.com%3A80","udp%3A%2F%2Fopen.demonii.com%3A1337","udp%3A%2F%2Ftracker.coppersurfer.tk%3A6969","udp%3A%2F%2Fexodus.desync.com%3A6969"],"infoHash":"f79ba4750d864620b2a2522592086c2827986287","infoHashBuffer":{"type":"Buffer","data":[247,155,164,117,13,134,70,32,178,162,82,37,146,8,108,40,39,152,98,135]},"announce":[],"urlList":[]}}